<svg xmlns="http://www.w3.org/2000/svg" xmlns:xlink="http://www.w3.org/1999/xlink" width="200" zoomAndPan="magnify" viewBox="0 0 375 374.999991" height="100" preserveAspectRatio="xMidYMid meet" version="1.0"><defs><g/><clipPath id="f1b47dfda5"><path d="M 125.117188 130 L 181 130 L 181 211 L 125.117188 211 Z M 125.117188 130 " clip-rule="nonzero"/></clipPath><clipPath id="2a67924ea2"><path d="M 194 130 L 249.617188 130 L 249.617188 211 L 194 211 Z M 194 130 " clip-rule="nonzero"/></clipPath></defs><g clip-path="url(#f1b47dfda5)"><path fill="#8b0000" d="M 179.296875 135.136719 L 172.351562 131.25 C 171.289062 130.648438 169.941406 131.046875 169.34375 132.117188 L 157.867188 152.875 L 148.757812 156.941406 C 148.3125 157.140625 147.960938 157.472656 147.71875 157.894531 L 125.824219 197.5 C 125.226562 198.566406 125.625 199.921875 126.6875 200.523438 L 144.910156 210.703125 C 145.238281 210.902344 145.617188 210.992188 145.96875 210.992188 C 146.742188 210.992188 147.496094 210.566406 147.894531 209.855469 L 155.300781 196.457031 L 163.527344 181.566406 L 169.785156 170.253906 C 170.03125 169.832031 170.117188 169.339844 170.050781 168.875 L 168.679688 158.917969 L 180.15625 138.160156 C 180.753906 137.09375 180.355469 135.738281 179.296875 135.136719 Z M 152.539062 192.320312 L 147.296875 189.386719 L 153.378906 178.386719 L 158.617188 181.320312 Z M 164.457031 157.40625 C 164.214844 157.828125 164.125 158.316406 164.191406 158.785156 L 165.5625 168.695312 L 160.742188 177.429688 L 153.578125 173.429688 C 152.515625 172.832031 151.167969 173.230469 150.570312 174.296875 L 142.34375 189.1875 C 142.054688 189.699219 141.988281 190.320312 142.144531 190.878906 C 142.300781 191.433594 142.675781 191.921875 143.207031 192.210938 L 150.371094 196.210938 L 145.109375 205.722656 L 130.753906 197.722656 L 151.210938 160.695312 L 160.320312 156.628906 C 160.765625 156.429688 161.117188 156.097656 161.359375 155.671875 L 172.109375 136.203125 L 175.203125 137.917969 Z M 164.457031 157.40625 " fill-opacity="1" fill-rule="nonzero"/></g><path fill="#8b0000" d="M 187.476562 116.648438 C 186.261719 116.648438 185.265625 117.648438 185.265625 118.871094 L 185.265625 123.601562 C 185.265625 124.824219 186.261719 125.824219 187.476562 125.824219 C 188.695312 125.824219 189.6875 124.824219 189.6875 123.601562 L 189.6875 118.871094 C 189.6875 117.648438 188.695312 116.648438 187.476562 116.648438 Z M 187.476562 116.648438 " fill-opacity="1" fill-rule="nonzero"/><path fill="#8b0000" d="M 187.476562 137.316406 C 186.261719 137.316406 185.265625 138.316406 185.265625 139.539062 L 185.265625 144.273438 C 185.265625 145.496094 186.261719 146.496094 187.476562 146.496094 C 188.695312 146.496094 189.6875 145.496094 189.6875 144.273438 L 189.6875 139.539062 C 189.6875 138.316406 188.695312 137.316406 187.476562 137.316406 Z M 187.476562 137.316406 " fill-opacity="1" fill-rule="nonzero"/><path fill="#8b0000" d="M 179.648438 122.402344 C 179.097656 121.3125 177.769531 120.871094 176.664062 121.425781 C 175.578125 121.980469 175.136719 123.316406 175.691406 124.425781 L 177.835938 128.648438 C 178.234375 129.425781 179.007812 129.871094 179.804688 129.871094 C 180.136719 129.871094 180.488281 129.78125 180.800781 129.625 C 181.882812 129.070312 182.324219 127.738281 181.773438 126.625 Z M 179.648438 122.402344 " fill-opacity="1" fill-rule="nonzero"/><g clip-path="url(#2a67924ea2)"><path fill="#8b0000" d="M 249.109375 197.5 L 227.214844 157.894531 C 226.972656 157.472656 226.617188 157.140625 226.175781 156.941406 L 217.066406 152.875 L 205.589844 132.117188 C 204.992188 131.046875 203.640625 130.648438 202.582031 131.25 L 195.660156 135.136719 C 194.597656 135.738281 194.199219 137.09375 194.796875 138.160156 L 206.273438 158.917969 L 204.902344 168.832031 C 204.835938 169.320312 204.925781 169.785156 205.167969 170.207031 L 211.425781 181.519531 L 215.40625 188.722656 L 227.0625 209.8125 C 227.457031 210.546875 228.210938 210.945312 228.984375 210.945312 C 229.339844 210.945312 229.714844 210.855469 230.046875 210.65625 L 248.269531 200.476562 C 249.328125 199.921875 249.707031 198.566406 249.109375 197.5 Z M 216.976562 182.476562 L 216.335938 181.320312 L 221.578125 178.386719 L 227.65625 189.386719 L 222.417969 192.320312 Z M 229.824219 205.722656 L 224.5625 196.210938 L 231.726562 192.210938 C 232.789062 191.609375 233.1875 190.253906 232.589844 189.1875 L 224.363281 174.296875 C 223.765625 173.230469 222.417969 172.832031 221.355469 173.429688 L 214.191406 177.429688 L 209.371094 168.695312 L 210.742188 158.785156 C 210.808594 158.296875 210.71875 157.828125 210.476562 157.40625 L 199.726562 137.9375 L 202.824219 136.226562 L 213.570312 155.695312 C 213.816406 156.117188 214.167969 156.453125 214.609375 156.652344 L 223.722656 160.71875 L 244.175781 197.746094 Z M 229.824219 205.722656 " fill-opacity="1" fill-rule="nonzero"/></g><path fill="#8b0000" d="M 197.097656 128.648438 L 199.242188 124.425781 C 199.792969 123.335938 199.375 122.003906 198.269531 121.425781 C 197.183594 120.871094 195.859375 121.292969 195.285156 122.402344 L 193.136719 126.625 C 192.585938 127.714844 193.003906 129.046875 194.113281 129.625 C 194.441406 129.78125 194.773438 129.871094 195.105469 129.871094 C 195.925781 129.847656 196.699219 129.425781 197.097656 128.648438 Z M 197.097656 128.648438 " fill-opacity="1" fill-rule="nonzero"/><g fill="#000000" fill-opacity="1"><g transform="translate(103.553135, 250.098864)"><g><path d="M 0.507812 -3.285156 C 0.992188 -3.234375 0.816406 -2.980469 0.890625 -2.800781 C 0.890625 -1.734375 1.835938 -1.171875 2.675781 -1.171875 C 3.871094 -1.171875 3.820312 -1.199219 5.09375 -3.515625 C 5.605469 -4.585938 6.496094 -6.546875 6.675781 -6.597656 C 7.3125 -6.777344 7.210938 -7.183594 7.363281 -7.820312 C 7.414062 -8.050781 8.332031 -8.867188 8.382812 -8.867188 C 8.714844 -9.042969 8.789062 -9.273438 8.96875 -9.679688 C 9.605469 -9.679688 9.300781 -10.320312 9.707031 -10.394531 C 9.910156 -10.421875 10.089844 -10.472656 10.320312 -10.523438 C 10.34375 -10.242188 10.472656 -9.988281 10.472656 -9.679688 C 10.214844 -9.199219 10.089844 -9.527344 10.089844 -7.746094 C 10.089844 -7.617188 10.089844 -7.464844 10.113281 -7.335938 C 10.113281 -7.058594 9.730469 -6.597656 9.707031 -6.089844 C 9.578125 -3.921875 9.351562 -1.402344 9.351562 0.585938 C 9.351562 0.941406 9.730469 1.070312 9.730469 1.503906 C 9.730469 1.757812 9.707031 2.011719 9.707031 2.265625 C 9.730469 2.699219 9.679688 3.160156 10.0625 3.492188 C 10.191406 3.566406 10.089844 3.871094 10.34375 4.101562 C 10.777344 4.507812 11.082031 4.917969 11.71875 4.917969 C 12.101562 4.917969 12.714844 4.917969 12.917969 4.457031 C 13.09375 4.050781 13.453125 3.746094 13.527344 3.210938 C 13.527344 2.675781 13.527344 1.808594 13.730469 1.425781 C 13.988281 1.09375 13.835938 0.6875 14.011719 0.433594 C 14.34375 -0.203125 14.472656 -1.148438 14.648438 -1.859375 C 14.828125 -2.597656 15.234375 -3.285156 15.335938 -4.050781 C 15.335938 -4.839844 16.6875 -6.472656 16.867188 -6.75 C 16.890625 -6.777344 16.917969 -6.828125 16.917969 -6.878906 C 16.917969 -7.132812 16.535156 -7.261719 16.355469 -7.261719 C 15.820312 -7.261719 15.082031 -6.421875 14.90625 -5.757812 C 14.878906 -5.65625 14.828125 -5.503906 14.726562 -5.425781 C 14.011719 -4.765625 14.140625 -4.128906 13.886719 -3.160156 C 13.808594 -2.828125 13.554688 -2.800781 13.527344 -2.546875 C 13.199219 -1.628906 12.941406 -0.714844 12.664062 0.28125 C 12.664062 0.839844 12.078125 2.75 11.695312 2.75 C 11.617188 2.75 11.335938 1.859375 11.335938 1.757812 C 11.335938 1.65625 11.363281 1.527344 11.386719 1.425781 C 11.234375 1.273438 11.183594 1.09375 11.183594 0.917969 C 11.183594 0.765625 11.210938 0.558594 11.210938 0.382812 C 11.210938 0 11.183594 -0.382812 11.183594 -0.789062 C 11.183594 -1.960938 11.4375 -3.261719 11.4375 -4.433594 C 11.4375 -4.96875 11.847656 -5.503906 11.847656 -5.886719 C 11.847656 -7.796875 12.585938 -9.730469 12.585938 -11.386719 C 12.585938 -12.585938 11.796875 -12.867188 11.234375 -12.867188 C 10.597656 -12.867188 10.34375 -12.433594 9.910156 -12.253906 C 9.121094 -11.949219 8.6875 -11.132812 8.027344 -10.800781 C 7.4375 -11.566406 6.851562 -12.101562 5.679688 -12.101562 C 3.921875 -12.101562 3.617188 -10.828125 2.90625 -9.808594 C 2.011719 -8.535156 1.835938 -7.695312 1.527344 -6.90625 C 1.222656 -6.113281 0.890625 -5.273438 0.890625 -4.433594 C 0.867188 -4.203125 0.714844 -4.101562 0.507812 -4.050781 Z M 7.4375 -10.292969 C 7.4375 -10.214844 7.464844 -10.164062 7.464844 -10.113281 C 7.464844 -9.859375 7.082031 -9.351562 7.082031 -9.351562 C 6.523438 -8.917969 6.214844 -8.253906 5.679688 -7.820312 C 5.402344 -7.59375 5.199219 -7.285156 5.019531 -7.007812 C 4.664062 -6.421875 3.335938 -4.636719 3.234375 -4.636719 C 3.109375 -4.636719 3.082031 -4.714844 3.082031 -4.816406 C 3.464844 -6.75 4.664062 -9.222656 6.265625 -10.292969 C 6.445312 -10.394531 6.597656 -10.445312 6.800781 -10.445312 C 6.980469 -10.445312 7.261719 -10.371094 7.4375 -10.292969 Z M 7.4375 -10.292969 "/></g></g></g><g fill="#000000" fill-opacity="1"><g transform="translate(117.667121, 250.098864)"><g><path d="M 2.113281 -8 C 2.113281 -7.644531 1.785156 -7.4375 1.785156 -7.082031 C 1.785156 -6.980469 1.808594 -6.851562 1.808594 -6.75 C 1.808594 -5.453125 1.199219 -3.71875 -0.0273438 -3.386719 C -0.304688 -3.335938 -1.019531 -3.132812 -1.019531 -2.648438 C -1.019531 -2.039062 0.355469 -1.960938 0.433594 -1.375 C 0.457031 -1.25 0.507812 -1.09375 0.507812 -0.941406 C 0.507812 -0.636719 0.457031 -0.28125 0.433594 0.0273438 C 0.636719 0.128906 0.765625 0.179688 0.765625 0.433594 C 0.664062 0.917969 0.789062 1.375 0.535156 1.835938 L 0.507812 1.808594 C 0.535156 1.886719 0.585938 1.988281 0.585938 2.0625 C 0.484375 2.496094 0.613281 2.929688 0.433594 3.363281 C 0.382812 3.441406 0.382812 3.542969 0.382812 3.644531 C 0.382812 3.871094 0.507812 4.078125 0.507812 4.304688 C 0.507812 4.738281 0.332031 5.171875 0.332031 5.628906 C 0.332031 5.835938 0.355469 6.011719 0.382812 6.214844 C 0.382812 6.445312 0.078125 6.496094 0.078125 6.597656 C 0.078125 6.675781 0.179688 6.777344 0.179688 6.851562 C 0.179688 6.878906 0.152344 6.929688 0.101562 6.957031 C 0.28125 7.109375 0.355469 7.261719 0.355469 7.464844 C 0.355469 7.898438 0.0273438 8.101562 0.0273438 8.484375 C 0.0273438 8.738281 0.179688 8.992188 0.179688 9.25 C 0.179688 9.605469 0.0273438 10.039062 0.0273438 10.394531 C 0.0273438 10.496094 0.078125 10.574219 0.078125 10.675781 C 0.078125 10.726562 0 10.800781 0 10.851562 C 0 10.957031 0.230469 10.980469 0.230469 11.082031 C 0.253906 11.335938 0.253906 11.59375 0.253906 11.847656 C 0.179688 11.949219 0.152344 12.078125 0.152344 12.179688 C 0.152344 12.28125 0.179688 12.382812 0.179688 12.484375 C 0.179688 12.613281 0.128906 12.738281 0.128906 12.867188 C 0.128906 13.65625 0.507812 15.566406 0.992188 15.566406 C 1.375 15.617188 1.734375 15.667969 2.113281 15.695312 C 2.394531 15.695312 2.597656 15.414062 2.597656 15.058594 C 2.597656 14.929688 2.523438 14.777344 2.523438 14.648438 C 2.523438 14.472656 2.777344 14.089844 2.777344 13.730469 C 2.777344 13.554688 2.75 13.375 2.75 13.199219 C 2.75 12.152344 3.183594 11.007812 3.183594 9.910156 C 3.183594 9.707031 3.109375 9.527344 3.109375 9.351562 C 3.109375 9.042969 3.464844 7.949219 3.464844 7.617188 C 3.464844 7.335938 3.3125 7.058594 3.3125 6.851562 C 3.3125 6.726562 3.464844 6.496094 3.464844 6.320312 C 3.464844 3.441406 3.335938 0.714844 2.191406 -1.734375 C 2.292969 -2.191406 2.394531 -3.03125 2.75 -3.261719 C 5.09375 -4.816406 7.007812 -6.164062 9.757812 -7.335938 C 9.9375 -7.386719 10.113281 -7.515625 10.113281 -7.695312 C 10.113281 -7.847656 9.859375 -8.027344 9.65625 -8.027344 C 8.050781 -8.027344 5.578125 -5.910156 3.644531 -5.273438 C 3.542969 -5.273438 3.515625 -5.425781 3.515625 -5.453125 C 3.515625 -5.835938 4.253906 -6.242188 4.253906 -6.625 C 4.253906 -7.210938 5.300781 -7.746094 5.375 -8.28125 C 5.554688 -9.628906 6.496094 -9.886719 6.625 -10.851562 C 6.675781 -11.386719 7.515625 -11.695312 7.515625 -12.585938 C 7.515625 -13.402344 7.949219 -12.96875 7.949219 -13.65625 C 7.949219 -13.886719 8.203125 -13.9375 8.28125 -14.113281 C 8.332031 -14.371094 8.332031 -14.625 8.355469 -14.800781 C 8.714844 -15.160156 9.375 -16.535156 9.375 -16.585938 C 9.375 -17.300781 9.835938 -17.886719 9.835938 -18.546875 C 10.191406 -19.109375 10.265625 -20.816406 10.265625 -21.019531 C 10.265625 -21.988281 9.707031 -22.828125 8.558594 -22.828125 C 6.828125 -22.828125 7.566406 -22.089844 6.421875 -20.941406 C 6.371094 -20.664062 6.394531 -20.40625 6.214844 -20.128906 C 6.140625 -20.023438 5.628906 -19.234375 5.605469 -18.777344 C 5.605469 -18.574219 5.25 -18.292969 5.25 -17.910156 C 5.25 -17.476562 5.070312 -17.019531 4.738281 -16.714844 C 4.457031 -16.457031 4.484375 -15.414062 4.101562 -14.851562 C 4.152344 -14.929688 3.261719 -12.585938 3.285156 -12.535156 C 3.285156 -12.203125 2.980469 -11.007812 2.675781 -10.472656 C 2.675781 -10.394531 2.699219 -10.34375 2.699219 -10.292969 C 2.699219 -9.785156 2.371094 -9.351562 2.320312 -8.816406 C 2.265625 -8.535156 2.191406 -8.253906 2.113281 -8 Z M 6.75 -12.664062 C 6.648438 -12.738281 6.546875 -12.890625 6.421875 -12.890625 C 6.164062 -12.890625 5.578125 -11.285156 5.402344 -11.03125 C 5.273438 -10.828125 5.042969 -10.394531 5.042969 -10.191406 C 5.042969 -10.140625 5.070312 -10.0625 5.09375 -9.988281 C 4.636719 -9.859375 4.484375 -9.9375 4.484375 -9.25 C 4.484375 -8.890625 4.101562 -8.816406 4.050781 -8.535156 C 4 -8.28125 3.796875 -8.203125 3.542969 -8.152344 C 3.515625 -8.203125 3.441406 -8.332031 3.464844 -8.382812 C 4 -9.503906 4 -11.285156 4.535156 -11.921875 C 4.613281 -12.050781 4.664062 -12.585938 4.816406 -12.917969 C 5.679688 -15.007812 6.371094 -16.867188 7.285156 -19.109375 C 7.492188 -19.644531 7.921875 -20.636719 8.433594 -20.714844 C 8.535156 -20.535156 8.765625 -20.332031 8.765625 -20.101562 C 8.765625 -19.921875 8.664062 -19.746094 8.664062 -19.566406 C 8.664062 -19.492188 8.6875 -19.4375 8.714844 -19.363281 C 8.714844 -19.082031 8.457031 -18.726562 8.457031 -18.371094 C 8.457031 -17.757812 8.027344 -17.121094 8.027344 -16.636719 C 8.027344 -16.558594 8.027344 -16.507812 8.050781 -16.433594 C 8.050781 -16.203125 7.335938 -15.183594 7.261719 -14.699219 C 7.183594 -14.214844 6.851562 -13.9375 6.828125 -13.476562 C 6.828125 -13.375 6.851562 -13.273438 6.851562 -13.171875 C 6.851562 -12.992188 6.777344 -12.816406 6.726562 -12.636719 C 6.777344 -12.585938 6.800781 -12.535156 6.828125 -12.484375 C 6.828125 -12.484375 6.828125 -12.457031 6.800781 -12.433594 C 6.800781 -12.507812 6.777344 -12.585938 6.75 -12.664062 Z M 1.679688 11.820312 C 1.554688 11.667969 1.453125 11.515625 1.453125 11.335938 C 1.453125 11.261719 1.476562 11.183594 1.503906 11.109375 C 1.453125 11.007812 1.425781 10.90625 1.425781 10.777344 C 1.425781 10.625 1.476562 10.445312 1.476562 10.292969 C 1.476562 9.503906 1.375 8.789062 1.375 8.027344 C 1.375 7.644531 1.527344 7.183594 1.527344 6.851562 C 1.527344 6.597656 1.402344 6.320312 1.402344 6.0625 C 1.402344 5.628906 1.554688 5.199219 1.554688 4.789062 C 1.554688 4.585938 1.527344 4.355469 1.527344 4.152344 C 1.527344 3.667969 1.734375 2.929688 1.734375 2.371094 C 1.734375 2.164062 1.707031 1.9375 1.707031 1.734375 C 1.707031 1.578125 1.757812 1.425781 1.9375 1.425781 C 2.523438 1.425781 2.496094 4.050781 2.496094 4.738281 C 2.496094 4.992188 2.546875 5.25 2.546875 5.527344 C 2.546875 6.113281 2.421875 6.726562 2.421875 7.386719 C 2.421875 7.972656 2.421875 8.765625 2.214844 9.273438 C 1.988281 10.214844 2.164062 11.007812 1.679688 11.820312 Z M 1.148438 2.242188 C 1.121094 2.265625 1.121094 2.292969 1.09375 2.34375 C 1.042969 2.292969 1.019531 2.265625 1.019531 2.214844 C 1.019531 2.191406 1.042969 2.164062 1.070312 2.164062 C 1.121094 2.164062 1.09375 2.214844 1.148438 2.242188 Z M 0.101562 6.957031 C 0.101562 7.082031 0.078125 7.210938 0.078125 7.261719 C 0.078125 7.285156 0.101562 7.285156 0.101562 7.285156 C 0.152344 7.285156 0.179688 7.285156 0.179688 7.183594 C 0.152344 7.109375 0.128906 7.03125 0.101562 6.957031 Z M 0.507812 1.808594 C 0.535156 1.808594 0.558594 1.808594 0.558594 1.808594 C 0.558594 1.785156 0.558594 1.785156 0.535156 1.785156 C 0.535156 1.785156 0.535156 1.785156 0.535156 1.835938 C 0.535156 1.835938 0.507812 1.808594 0.507812 1.808594 Z M 2.140625 -8 C 2.140625 -8 2.113281 -8 2.113281 -8 C 2.113281 -8.027344 2.140625 -8.050781 2.140625 -8.078125 C 2.140625 -8.101562 2.113281 -8.128906 2.089844 -8.128906 C 2.0625 -8.128906 2.039062 -8.128906 2.011719 -8.101562 C 2.0625 -8.078125 2.089844 -8.050781 2.140625 -8 Z M 6.726562 -12.636719 C 6.75 -12.585938 6.828125 -12.484375 6.828125 -12.484375 C 6.828125 -12.457031 6.828125 -12.457031 6.800781 -12.433594 C 6.800781 -12.507812 6.777344 -12.585938 6.75 -12.664062 C 6.75 -12.664062 6.726562 -12.636719 6.726562 -12.636719 Z M 6.726562 -12.636719 "/></g></g></g><g fill="#000000" fill-opacity="1"><g transform="translate(125.131735, 250.098864)"><g><path d="M 5.859375 -7.210938 C 5.960938 -7.746094 6.011719 -7.921875 6.011719 -8.535156 C 6.011719 -8.917969 6.34375 -9.199219 6.34375 -9.578125 C 6.421875 -10.214844 6.472656 -10.828125 6.546875 -11.464844 C 6.523438 -11.492188 6.523438 -11.542969 6.523438 -11.566406 C 6.523438 -11.746094 6.648438 -11.921875 6.648438 -12.101562 C 6.648438 -12.152344 6.648438 -12.230469 6.625 -12.28125 C 6.800781 -12.6875 8.507812 -13.527344 8.484375 -13.527344 C 9.324219 -13.707031 9.910156 -13.707031 10.726562 -14.214844 C 10.800781 -14.265625 10.90625 -14.292969 11.007812 -14.292969 C 11.082031 -14.292969 11.183594 -14.265625 11.261719 -14.265625 C 11.414062 -14.265625 11.59375 -14.445312 11.695312 -14.445312 C 11.820312 -14.445312 12.101562 -14.292969 12.152344 -14.292969 C 12.253906 -14.292969 12.738281 -14.75 12.738281 -14.929688 C 12.738281 -15.007812 12.714844 -15.082031 12.664062 -15.183594 C 12.636719 -15.132812 12.585938 -15.109375 12.558594 -15.109375 C 12.28125 -15.109375 12.6875 -16.101562 11.644531 -16.101562 C 11.285156 -16.101562 11.335938 -15.644531 11.109375 -15.644531 C 10.957031 -15.644531 10.828125 -15.972656 10.675781 -15.972656 C 10.371094 -15.972656 9.886719 -15.335938 9.527344 -15.335938 C 8.765625 -15.335938 7.796875 -14.851562 7.386719 -14.699219 C 7.132812 -14.800781 7.183594 -15.132812 6.957031 -15.285156 C 6.957031 -15.261719 6.980469 -15.234375 6.980469 -15.210938 C 7.007812 -15.234375 7.007812 -15.261719 7.007812 -15.261719 C 6.980469 -15.261719 6.957031 -15.261719 6.929688 -15.234375 C 7.082031 -15.335938 7.132812 -15.695312 7.132812 -16.050781 C 7.132812 -17.144531 6.929688 -17.730469 6.089844 -17.730469 C 5.425781 -17.730469 5.199219 -17.351562 4.890625 -16.765625 C 4.917969 -16.535156 4.941406 -16.304688 4.941406 -16.078125 C 4.941406 -15.132812 4.867188 -13.453125 4.203125 -13.300781 C 3.210938 -13.144531 2.472656 -12.433594 2.394531 -12.433594 C 2.113281 -12.433594 1.554688 -11.972656 1.019531 -11.871094 C 0.714844 -11.820312 0 -11.820312 0 -11.542969 C 0 -10.777344 1.402344 -10.546875 1.679688 -10.546875 C 2.980469 -10.546875 3.132812 -11.285156 3.898438 -11.285156 C 3.972656 -11.335938 3.972656 -11.4375 4.152344 -11.4375 C 4.332031 -11.4375 4.457031 -11.3125 4.457031 -11.160156 C 4.457031 -11.058594 4.433594 -10.957031 4.433594 -10.851562 C 4.433594 -10.699219 4.585938 -10.574219 4.585938 -10.421875 C 4.585938 -10.34375 4.558594 -10.265625 4.535156 -10.214844 C 4.28125 -9.730469 4.203125 -9.25 4.203125 -8.765625 C 4.203125 -8.613281 4.230469 -8.433594 4.230469 -8.304688 C 4.230469 -8.101562 4.152344 -7.898438 4.152344 -7.71875 C 4.152344 -7.464844 4.230469 -7.210938 4.230469 -6.957031 C 4.230469 -6.878906 4.203125 -6.800781 4.203125 -6.75 C 4.203125 -6.648438 4.457031 -6.496094 4.457031 -6.34375 C 4.457031 -6.140625 4.101562 -6.089844 4.101562 -5.9375 C 4.101562 -5.734375 4.535156 -5.886719 4.535156 -5.503906 L 4.535156 -5.527344 C 4.738281 -5.628906 4.765625 -5.835938 4.765625 -6.0625 C 4.765625 -6.242188 4.738281 -6.421875 4.738281 -6.597656 C 4.738281 -7.058594 5.121094 -7.363281 5.121094 -7.464844 C 5.121094 -7.695312 4.765625 -8.027344 4.765625 -8.230469 C 4.765625 -8.433594 4.917969 -8.558594 5.144531 -8.789062 C 5.121094 -8.765625 5.121094 -8.738281 5.121094 -8.738281 C 5.144531 -8.765625 5.144531 -8.738281 5.144531 -8.789062 C 5.144531 -8.789062 5.121094 -8.765625 5.09375 -8.765625 C 5.09375 -8.457031 5.25 -7.515625 5.476562 -7.515625 C 5.578125 -7.515625 5.65625 -7.542969 5.707031 -7.542969 C 5.835938 -7.542969 5.835938 -7.464844 5.859375 -7.210938 Z M 5.25 -9.425781 C 5.222656 -9.453125 5.199219 -9.453125 5.199219 -9.453125 C 5.199219 -9.476562 5.199219 -9.527344 5.222656 -9.527344 C 5.25 -9.527344 5.273438 -9.527344 5.273438 -9.503906 C 5.273438 -9.476562 5.25 -9.453125 5.25 -9.425781 Z M 5.375 -10.546875 C 5.453125 -10.546875 5.453125 -10.496094 5.453125 -10.472656 C 5.425781 -10.445312 5.402344 -10.421875 5.402344 -10.421875 C 5.375 -10.421875 5.351562 -10.445312 5.351562 -10.496094 C 5.351562 -10.523438 5.375 -10.546875 5.375 -10.546875 Z M 5.351562 -5.910156 C 5.351562 -5.910156 5.375 -5.9375 5.375 -5.9375 C 5.375 -5.707031 5.300781 -5.476562 5.300781 -5.25 C 5.300781 -5.144531 5.351562 -5.042969 5.351562 -4.941406 C 5.351562 -4.613281 5.042969 -4.230469 5.042969 -4.128906 C 5.042969 -3.949219 5.300781 -3.71875 5.300781 -3.464844 C 5.300781 -3.234375 5.121094 -3.03125 5.121094 -2.777344 C 5.121094 -2.726562 5.144531 -2.648438 5.144531 -2.597656 C 5.144531 -2.496094 5.070312 -2.265625 4.992188 -2.265625 C 4.714844 -2.265625 4.664062 -2.90625 4.664062 -3.542969 C 4.664062 -3.796875 4.6875 -4.027344 4.6875 -4.230469 C 4.6875 -4.585938 4.664062 -4.839844 4.585938 -4.839844 C 4.457031 -4.789062 4.457031 -4.664062 4.457031 -4.558594 C 4.457031 -4.457031 4.484375 -4.382812 4.484375 -4.28125 C 4.484375 -4.078125 4.40625 -3.871094 4.304688 -3.71875 L 4.332031 -3.71875 C 4.507812 -3.644531 4.585938 -3.59375 4.585938 -3.492188 C 4.585938 -3.261719 4.355469 -3.082031 4.253906 -3.082031 C 4.078125 -3.082031 4 -3.261719 3.898438 -3.261719 C 3.644531 -3.261719 3.644531 -2.394531 3.464844 -2.0625 C 3.464844 -2.011719 3.59375 -1.910156 3.644531 -1.910156 C 3.847656 -1.910156 3.972656 -2.699219 4.179688 -2.699219 C 4.28125 -2.699219 4.304688 -2.597656 4.355469 -2.523438 C 4.355469 -2.242188 4.027344 -1.960938 4.027344 -1.605469 C 4.027344 -1.503906 4.050781 -1.402344 4.050781 -1.300781 C 4.050781 -0.816406 3.492188 0 3.492188 0.101562 C 3.492188 0.40625 3.796875 1.121094 3.796875 1.222656 C 3.796875 1.300781 3.769531 1.402344 3.769531 1.476562 C 3.769531 1.910156 4.355469 2.523438 4.355469 3.058594 C 4.332031 3.132812 4.332031 3.183594 4.332031 3.234375 C 4.332031 3.542969 4.941406 4.152344 5.605469 4.152344 C 5.785156 4.152344 6.472656 4.050781 6.597656 3.667969 C 6.597656 3.617188 6.75 3.566406 6.828125 3.566406 C 6.878906 3.566406 6.929688 3.59375 6.980469 3.59375 C 7.03125 3.59375 7.769531 2.90625 7.796875 2.800781 C 7.871094 2.523438 8.179688 2.574219 8.179688 2.292969 C 8.253906 1.9375 8.28125 1.910156 8.6875 1.910156 C 8.714844 1.910156 8.816406 1.988281 8.867188 1.988281 C 8.992188 1.988281 8.941406 1.527344 8.96875 1.324219 C 9.042969 0.890625 9.628906 0.941406 9.628906 0.101562 C 9.628906 -0.40625 9.476562 -1.019531 9.476562 -1.578125 C 9.476562 -1.886719 9.503906 -2.191406 9.554688 -2.496094 C 9.808594 -2.777344 9.910156 -2.878906 9.910156 -3.058594 C 9.910156 -3.160156 9.859375 -3.261719 9.808594 -3.464844 C 9.09375 -2.445312 8.382812 -1.527344 7.796875 -0.457031 C 7.386719 0.28125 6.546875 1.734375 6.140625 1.734375 C 5.351562 1.734375 6.011719 0.585938 5.476562 0.28125 C 5.375 0.230469 5.351562 0 5.351562 -0.078125 C 5.351562 -0.355469 5.65625 -0.433594 5.65625 -0.613281 C 5.65625 -0.867188 5.375 -1.019531 5.375 -1.273438 C 5.375 -2.394531 5.605469 -3.441406 5.605469 -4.636719 C 5.605469 -4.765625 5.554688 -4.917969 5.554688 -5.042969 C 5.554688 -5.351562 5.734375 -5.578125 5.835938 -5.910156 C 5.707031 -5.910156 5.605469 -5.859375 5.476562 -5.859375 C 5.453125 -5.859375 5.402344 -5.859375 5.351562 -5.910156 Z M 4.765625 -1.25 C 4.789062 -1.476562 4.714844 -1.734375 4.992188 -1.859375 C 5.09375 -1.859375 5.144531 -1.476562 5.144531 -1.351562 C 5.144531 -1.148438 5.042969 -0.714844 4.738281 -0.714844 C 4.714844 -0.714844 4.6875 -0.765625 4.6875 -0.789062 C 4.714844 -0.941406 4.738281 -1.09375 4.765625 -1.25 Z M 8.507812 1.453125 C 8.40625 1.402344 8.253906 1.453125 8.253906 1.25 C 8.304688 1.148438 8.332031 1.070312 8.457031 1.070312 C 8.585938 1.070312 8.6875 1.148438 8.6875 1.273438 C 8.6875 1.476562 8.6875 1.453125 8.507812 1.453125 Z M 8.738281 0.40625 C 8.664062 0.535156 8.613281 0.558594 8.535156 0.558594 C 8.457031 0.507812 8.382812 0.457031 8.382812 0.40625 C 8.382812 0.28125 8.433594 0.230469 8.507812 0.230469 C 8.585938 0.230469 8.664062 0.355469 8.738281 0.40625 Z M 9.324219 -1.070312 C 9.300781 -1.070312 9.300781 -1.042969 9.273438 -1.042969 C 9.222656 -1.042969 9.199219 -1.121094 9.199219 -1.171875 C 9.199219 -1.199219 9.222656 -1.25 9.273438 -1.25 C 9.300781 -1.25 9.324219 -1.148438 9.324219 -1.070312 Z M 7.972656 1.988281 C 7.972656 2.0625 7.972656 2.113281 7.898438 2.113281 C 7.847656 2.113281 7.847656 2.011719 7.847656 1.960938 C 7.871094 1.9375 7.898438 1.910156 7.921875 1.910156 C 7.949219 1.9375 7.972656 1.960938 7.972656 1.988281 Z M 8.613281 -0.585938 C 8.636719 -0.636719 8.664062 -0.6875 8.6875 -0.738281 C 8.6875 -0.714844 8.738281 -0.6875 8.738281 -0.664062 C 8.714844 -0.613281 8.6875 -0.585938 8.664062 -0.535156 C 8.664062 -0.558594 8.636719 -0.558594 8.613281 -0.585938 Z M 5.835938 -7.234375 C 5.835938 -7.234375 5.859375 -7.210938 5.859375 -7.210938 C 5.527344 -7.109375 5.375 -7.132812 5.273438 -6.574219 C 5.199219 -6.625 5.09375 -6.675781 5.042969 -6.777344 C 4.917969 -6.523438 4.941406 -6.191406 4.941406 -5.886719 C 4.941406 -5.835938 5.019531 -5.757812 5.09375 -5.757812 C 5.171875 -5.757812 5.273438 -5.859375 5.375 -5.9375 C 5.375 -5.9375 5.351562 -5.910156 5.351562 -5.910156 C 5.351562 -6.265625 5.960938 -6.371094 5.960938 -6.828125 C 5.960938 -6.957031 5.910156 -7.082031 5.835938 -7.234375 Z M 10.957031 -5.554688 C 11.082031 -5.476562 11.234375 -5.324219 11.386719 -5.324219 C 11.746094 -5.324219 12 -6.0625 12 -6.472656 C 12 -6.523438 11.949219 -6.546875 11.898438 -6.546875 C 11.386719 -6.546875 11.363281 -5.808594 10.957031 -5.554688 Z M 16.613281 -10.648438 C 17.144531 -10.828125 17.273438 -10.828125 17.273438 -11.386719 C 17.273438 -11.4375 17.171875 -11.492188 17.144531 -11.492188 C 16.789062 -11.464844 16.382812 -11.234375 16.382812 -10.851562 C 16.382812 -10.699219 16.507812 -10.648438 16.613281 -10.648438 Z M 13.121094 -7.644531 C 13.222656 -7.644531 13.476562 -7.949219 13.476562 -8.050781 C 13.476562 -8.128906 13.402344 -8.230469 13.300781 -8.230469 C 13.121094 -8.230469 13.019531 -8 13.019531 -7.898438 C 13.019531 -7.796875 13.019531 -7.746094 13.121094 -7.644531 Z M 3.847656 -4.714844 C 3.847656 -4.40625 3.820312 -4.253906 3.921875 -4.253906 C 3.972656 -4.28125 4 -4.355469 4 -4.382812 C 4 -4.507812 3.921875 -4.558594 3.847656 -4.714844 Z M 12.484375 -6.957031 C 12.507812 -6.980469 12.507812 -7.007812 12.507812 -7.03125 C 12.507812 -7.058594 12.457031 -7.109375 12.382812 -7.109375 C 12.332031 -7.109375 12.304688 -7.082031 12.28125 -7.03125 C 12.28125 -6.980469 12.304688 -6.929688 12.332031 -6.878906 C 12.382812 -6.90625 12.433594 -6.929688 12.484375 -6.957031 Z M 10.394531 -4.101562 C 10.292969 -4.101562 10.214844 -4.027344 10.214844 -3.972656 C 10.214844 -3.921875 10.292969 -3.871094 10.421875 -3.871094 C 10.523438 -3.871094 10.597656 -3.921875 10.597656 -4 C 10.597656 -4.078125 10.523438 -4.101562 10.394531 -4.101562 Z M 14.90625 -9.757812 C 14.929688 -9.757812 14.929688 -9.730469 14.957031 -9.730469 C 15.007812 -9.730469 15.058594 -9.835938 15.058594 -9.886719 C 15.058594 -9.9375 15.007812 -10.011719 14.957031 -10.011719 C 14.90625 -10.011719 14.828125 -9.960938 14.828125 -9.886719 C 14.828125 -9.859375 14.878906 -9.808594 14.90625 -9.757812 Z M 14.292969 -9.324219 C 14.371094 -9.324219 14.472656 -9.25 14.546875 -9.25 C 14.597656 -9.25 14.648438 -9.300781 14.648438 -9.351562 C 14.597656 -9.425781 14.546875 -9.453125 14.472656 -9.453125 C 14.394531 -9.453125 14.34375 -9.375 14.292969 -9.324219 Z M 14.265625 -9.375 C 14.265625 -9.375 14.292969 -9.324219 14.292969 -9.324219 C 14.191406 -9.273438 14.039062 -9.171875 14.039062 -9.09375 C 14.039062 -9.070312 14.0625 -9.042969 14.113281 -9.042969 C 14.214844 -9.042969 14.242188 -9.273438 14.265625 -9.375 Z M 10.242188 -3.082031 C 10.242188 -3.109375 10.242188 -3.132812 10.214844 -3.160156 C 10.214844 -3.132812 10.164062 -3.132812 10.164062 -3.109375 C 10.164062 -3.082031 10.191406 -3.058594 10.191406 -3.03125 C 10.214844 -3.058594 10.242188 -3.058594 10.242188 -3.082031 Z M 4.332031 -5.25 C 4.28125 -5.222656 4.128906 -5.25 4.050781 -5.171875 C 4.101562 -5.144531 4.152344 -5.070312 4.179688 -5.070312 C 4.28125 -5.070312 4.332031 -5.144531 4.332031 -5.25 Z M 4.535156 -5.527344 C 4.457031 -5.425781 4.40625 -5.351562 4.332031 -5.25 C 4.332031 -5.25 4.355469 -5.222656 4.355469 -5.222656 C 4.433594 -5.324219 4.507812 -5.402344 4.535156 -5.527344 Z M 4.332031 -3.71875 C 4.332031 -3.71875 4.304688 -3.71875 4.304688 -3.71875 C 4.332031 -3.71875 4.332031 -3.71875 4.355469 -3.71875 C 4.332031 -3.695312 4.332031 -3.695312 4.304688 -3.695312 C 4.304688 -3.695312 4.332031 -3.71875 4.332031 -3.71875 Z M 4.332031 -3.71875 "/></g></g></g><g fill="#000000" fill-opacity="1"><g transform="translate(138.838094, 250.098864)"><g><path d="M 1.707031 -8.992188 C 1.734375 -8.890625 1.757812 -8.789062 1.757812 -8.6875 C 1.757812 -8.585938 1.707031 -8.613281 1.679688 -8.585938 C 1.65625 -8.613281 1.628906 -8.664062 1.628906 -8.714844 C 1.628906 -8.816406 1.679688 -8.917969 1.734375 -8.992188 C 1.351562 -8.457031 1.453125 -7.644531 1.09375 -7.210938 C 0.765625 -6.800781 0.789062 -5.628906 0.789062 -5.121094 C 0.789062 -4.917969 0.96875 -4.714844 0.96875 -4.535156 C 0.96875 -4.40625 0.839844 -4.253906 0.839844 -4.128906 C 0.839844 -3.949219 0.941406 -3.796875 0.941406 -3.644531 C 0.941406 -3.542969 0.867188 -3.441406 0.867188 -3.363281 C 0.867188 -3.160156 1.148438 -2.957031 1.148438 -2.726562 C 1.148438 -2.597656 1.09375 -2.472656 1.09375 -2.371094 C 1.09375 -2.292969 1.402344 -1.402344 1.835938 -1.171875 C 1.9375 -1.121094 2.011719 -0.992188 2.0625 -0.867188 C 2.597656 -0.078125 3.285156 -0.101562 4.28125 0 C 4.433594 -0.101562 4.585938 -0.203125 4.765625 -0.304688 C 4.839844 -0.253906 4.941406 -0.230469 5.019531 -0.230469 C 5.453125 -0.230469 7.132812 -2.292969 7.542969 -2.445312 C 7.972656 -2.597656 8.355469 -3.746094 9.070312 -4.101562 C 9.351562 -4.101562 9.476562 -4.507812 9.476562 -4.714844 C 9.476562 -4.96875 10.851562 -6.113281 10.851562 -6.113281 C 11.109375 -6.292969 11.871094 -6.597656 11.871094 -6.929688 C 11.871094 -7.132812 11.617188 -7.210938 11.464844 -7.210938 C 10.675781 -7.210938 9.605469 -5.988281 9.324219 -5.734375 C 8 -4.558594 6.648438 -3.492188 5.273438 -2.371094 C 4.992188 -2.140625 4.535156 -1.835938 4.152344 -1.835938 C 3.234375 -1.835938 3.160156 -3.972656 3.160156 -5.121094 C 3.160156 -5.527344 3.183594 -6.242188 3.667969 -6.242188 C 4.027344 -6.242188 4.382812 -6.140625 4.738281 -6.140625 C 6.164062 -6.140625 7.617188 -7.464844 7.898438 -8 C 8.027344 -8.253906 8.203125 -8.40625 8.382812 -8.585938 C 8.585938 -8.816406 8.6875 -9.222656 8.941406 -9.351562 C 9.199219 -9.527344 9.300781 -9.785156 9.300781 -10.089844 C 9.300781 -10.242188 9.273438 -10.394531 9.273438 -10.574219 C 9.273438 -10.648438 9.300781 -10.75 9.300781 -10.828125 C 9.300781 -12.203125 7.132812 -13.171875 5.808594 -13.171875 C 5.402344 -13.171875 5.222656 -12.789062 4.890625 -12.664062 C 4.332031 -12.433594 4 -11.921875 3.617188 -11.542969 C 3.441406 -10.980469 2.574219 -10.75 2.34375 -10.039062 C 2.214844 -9.628906 1.960938 -9.300781 1.707031 -8.992188 Z M 4.128906 -7.71875 C 3.71875 -7.769531 3.59375 -7.769531 3.59375 -7.949219 C 3.59375 -8.636719 4.941406 -11.335938 6.625 -11.335938 C 7.132812 -11.335938 7.234375 -10.625 7.234375 -10.191406 C 7.234375 -8.558594 5.042969 -7.871094 4.128906 -7.71875 Z M 4.128906 -7.71875 "/></g></g></g><g fill="#000000" fill-opacity="1"><g transform="translate(148.672024, 250.098864)"><g><path d="M 1.25 -5.65625 C 1.199219 -5.453125 1.09375 -5.121094 1.09375 -4.890625 C 1.09375 -4.765625 1.222656 -4.613281 1.222656 -4.457031 C 1.222656 -4.40625 1.199219 -4.382812 1.199219 -4.355469 C 0.867188 -3.949219 0.765625 -3.082031 0.765625 -2.597656 C 0.765625 -2.164062 0.867188 -1.808594 0.867188 -1.453125 C 0.867188 -1.199219 0.816406 -0.992188 0.816406 -0.765625 C 0.816406 0.078125 1.042969 0.941406 1.679688 0.941406 C 2.648438 0.941406 3.109375 -1.273438 3.082031 -1.222656 C 3.542969 -2.039062 3.515625 -2.980469 3.871094 -3.847656 C 4.613281 -5.605469 4.433594 -6.164062 4.867188 -6.800781 C 5.121094 -7.183594 5.25 -7.617188 5.425781 -8.027344 C 5.910156 -9.222656 7.210938 -11.210938 8.230469 -11.820312 C 8.253906 -11.820312 8.253906 -11.847656 8.28125 -11.847656 C 8.664062 -11.847656 8.355469 -8.765625 9.425781 -8.765625 C 9.808594 -8.765625 9.679688 -9.527344 10.140625 -9.859375 C 10.878906 -10.394531 11.082031 -10.777344 11.082031 -11.746094 C 11.082031 -12.664062 10.699219 -14.039062 9.324219 -14.039062 C 8.457031 -14.039062 7.335938 -12.992188 7.234375 -12.585938 C 7.160156 -12.253906 6.445312 -11.617188 6.011719 -11.03125 C 6.039062 -11.261719 6.089844 -11.386719 6.089844 -11.542969 C 5.9375 -12.101562 5.859375 -13.019531 5.070312 -13.019531 C 4.789062 -13.019531 4.535156 -12.917969 4.253906 -12.917969 C 4.203125 -12.917969 4.128906 -12.941406 4.078125 -12.941406 C 3.871094 -12.941406 3.210938 -11.667969 3.082031 -11.363281 C 2.675781 -10.472656 2.011719 -9.476562 1.960938 -8.535156 C 1.960938 -8.253906 1.679688 -7.769531 1.679688 -7.335938 C 1.679688 -7.210938 1.679688 -7.109375 1.707031 -6.980469 C 1.503906 -6.777344 1.351562 -5.859375 1.042969 -5.808594 Z M 4.507812 -7.796875 L 4.433594 -7.796875 L 4.484375 -7.871094 Z M 4.507812 -7.796875 "/></g></g></g><g fill="#000000" fill-opacity="1"><g transform="translate(159.75431, 250.098864)"><g/></g></g><g fill="#000000" fill-opacity="1"><g transform="translate(166.632964, 250.098864)"><g><path d="M 13.808594 -3.464844 C 13.679688 -3.492188 13.453125 -3.566406 13.453125 -3.71875 C 13.453125 -3.972656 13.785156 -4.253906 13.785156 -4.507812 C 13.785156 -4.433594 13.707031 -4.355469 13.707031 -4.355469 C 13.679688 -4.40625 13.65625 -4.433594 13.65625 -4.457031 C 13.65625 -4.484375 13.707031 -4.484375 13.808594 -4.484375 C 13.910156 -4.890625 13.886719 -5.300781 14.011719 -5.785156 C 14.011719 -5.785156 14.039062 -5.757812 14.039062 -5.757812 C 13.09375 -5.757812 13.222656 -3.972656 12.839844 -3.59375 C 12.738281 -3.492188 12.507812 -3.183594 12.535156 -3.183594 C 12.507812 -3.183594 12.382812 -3.3125 12.304688 -3.3125 C 12.179688 -3.3125 12.101562 -3.132812 12.101562 -3.03125 C 12.101562 -2.90625 12.152344 -2.777344 12.179688 -2.648438 C 12.179688 -2.421875 11.59375 -2.164062 11.59375 -1.785156 C 11.59375 -1.402344 10.828125 0.128906 10.445312 0.128906 C 10.191406 0.128906 10.039062 -0.664062 10.039062 -0.890625 C 10.039062 -1.425781 10.445312 -2.421875 10.445312 -3.363281 C 10.445312 -3.492188 10.445312 -3.644531 10.421875 -3.769531 C 10.523438 -4.28125 10.523438 -4.867188 10.726562 -5.351562 C 11.3125 -6.75 11.386719 -8.890625 11.386719 -9.9375 C 11.386719 -11.261719 10.421875 -11.414062 9.300781 -11.492188 C 8.941406 -11.492188 7.542969 -10.292969 6.777344 -9.679688 C 5.9375 -8.992188 4.382812 -7.082031 3.871094 -7.082031 C 3.796875 -7.3125 3.695312 -7.542969 3.695312 -7.769531 C 3.695312 -9.121094 4.128906 -10.496094 4.179688 -11.59375 C 4.203125 -12.304688 4.816406 -12.96875 4.816406 -13.605469 C 4.816406 -13.886719 4.179688 -14.625 3.644531 -14.625 C 2.878906 -14.625 2.34375 -11.363281 2.34375 -11.464844 C 2.34375 -10.878906 1.960938 -10.421875 1.960938 -9.808594 C 1.960938 -9.476562 1.527344 -8.457031 1.527344 -7.820312 C 1.527344 -7.71875 1.554688 -7.59375 1.605469 -7.492188 C 1.859375 -6.625 1.835938 -5.121094 2.394531 -4.816406 C 2.800781 -4.585938 3.234375 -4.304688 3.617188 -4.304688 C 5.144531 -4.304688 6.0625 -6.957031 6.445312 -7.183594 C 6.800781 -7.414062 6.878906 -7.949219 7.132812 -8.050781 C 7.464844 -8.28125 8.027344 -8.585938 8.027344 -9.070312 C 8.027344 -9.273438 8.355469 -9.375 8.507812 -9.425781 C 8.789062 -9.375 8.890625 -9.222656 8.890625 -8.96875 C 8.816406 -8.484375 8.636719 -7.949219 8.636719 -7.515625 C 8.636719 -7.3125 8.816406 -7.132812 8.816406 -6.929688 C 8.816406 -6.574219 8.507812 -6.242188 8.507812 -5.628906 C 8.507812 -5.144531 8.152344 -4.6875 8.152344 -4.28125 C 8.152344 -4.152344 8.203125 -4.027344 8.203125 -3.871094 C 8.203125 -3.820312 8.203125 -3.769531 8.179688 -3.746094 C 7.972656 -3.414062 7.898438 -3.058594 7.898438 -2.675781 C 7.898438 -2.546875 7.898438 -2.394531 7.921875 -2.265625 C 7.921875 -1.628906 7.847656 -1.019531 7.847656 -0.355469 C 7.847656 -0.078125 8.203125 -0.078125 8.203125 0.128906 C 8.203125 0.253906 8.101562 0.382812 8.101562 0.484375 C 8.101562 0.613281 8.332031 0.714844 8.332031 0.890625 C 8.332031 0.96875 8.304688 1.042969 8.304688 1.121094 C 8.304688 1.476562 8.789062 1.503906 8.789062 1.707031 C 8.839844 2.191406 9.910156 2.777344 10.191406 2.777344 C 10.34375 2.777344 10.496094 2.421875 10.625 2.421875 C 10.699219 2.421875 10.878906 2.546875 11.007812 2.625 C 11.261719 2.472656 11.542969 2.292969 11.695312 2.011719 C 12.128906 0.867188 12.789062 0.664062 12.789062 -0.714844 C 12.789062 -0.839844 12.765625 -0.96875 12.765625 -1.09375 C 12.765625 -1.835938 13.019531 -1.835938 13.554688 -2.371094 C 13.605469 -2.75 13.605469 -3.132812 13.808594 -3.464844 Z M 12.535156 -1.25 C 12.507812 -1.351562 12.484375 -1.453125 12.484375 -1.554688 C 12.484375 -1.707031 12.507812 -1.859375 12.535156 -2.011719 C 12.535156 -1.835938 12.585938 -1.679688 12.585938 -1.503906 C 12.585938 -1.425781 12.558594 -1.351562 12.535156 -1.25 Z M 13.09375 -3.082031 L 13.070312 -3.160156 L 13.121094 -3.160156 Z M 15.820312 -8.6875 C 15.796875 -8.664062 15.769531 -8.636719 15.746094 -8.636719 C 16.179688 -8.992188 16.203125 -9.503906 16.507812 -10.089844 C 17.042969 -10.421875 18.164062 -10.320312 18.980469 -10.496094 C 19.335938 -10.574219 19.695312 -10.625 20.078125 -10.625 C 20.253906 -10.625 20.40625 -10.597656 20.585938 -10.597656 C 20.867188 -10.597656 21.273438 -10.597656 21.273438 -11.058594 C 21.273438 -11.769531 20.457031 -11.769531 19.796875 -11.769531 C 18.316406 -11.769531 16.867188 -11.59375 15.414062 -11.59375 C 14.980469 -11.59375 14.421875 -11.210938 14.421875 -10.878906 C 14.421875 -10.523438 14.800781 -10.113281 14.800781 -9.679688 C 14.800781 -7.847656 14.316406 -7.183594 13.835938 -6.472656 C 13.886719 -6.242188 13.960938 -6.011719 14.039062 -5.757812 C 14.039062 -5.757812 14.011719 -5.785156 14.011719 -5.785156 C 14.34375 -5.988281 15.132812 -5.9375 15.132812 -6.597656 C 15.132812 -6.675781 15.109375 -6.777344 15.109375 -6.878906 C 15.109375 -7.007812 15.847656 -8.027344 15.847656 -8.40625 C 15.847656 -8.484375 15.820312 -8.558594 15.746094 -8.636719 Z M 14.851562 -6.523438 C 14.828125 -6.523438 14.800781 -6.496094 14.800781 -6.496094 C 14.777344 -6.523438 14.777344 -6.546875 14.777344 -6.574219 C 14.777344 -6.597656 14.800781 -6.625 14.800781 -6.648438 C 14.851562 -6.574219 14.851562 -6.625 14.851562 -6.523438 Z M 13.808594 -3.441406 C 13.808594 -3.464844 13.785156 -3.492188 13.785156 -3.515625 Z M 13.808594 -3.441406 "/></g></g></g><g fill="#000000" fill-opacity="1"><g transform="translate(185.103441, 250.098864)"><g><path d="M 13.707031 -10.039062 C 12.355469 -9.960938 11.132812 -9.425781 9.859375 -8.992188 C 9.785156 -8.96875 9.707031 -8.941406 9.628906 -8.941406 C 9.199219 -8.941406 9.121094 -9.476562 9.019531 -9.886719 C 8.738281 -10.828125 7.796875 -11.871094 7.082031 -12.128906 C 6.472656 -12.332031 5.910156 -12.867188 5.222656 -12.867188 C 4.789062 -12.867188 4.382812 -12.867188 4 -12.867188 C 2.320312 -12.867188 1.300781 -12.636719 1.300781 -9.988281 C 1.300781 -9.25 2.011719 -8.203125 2.011719 -7.667969 C 2.011719 -7.082031 1.476562 -5.808594 1.476562 -5.476562 C 1.476562 -4.992188 1.273438 -4.535156 1.273438 -4.027344 C 1.273438 -1.402344 3.082031 -0.0507812 3.082031 -0.0507812 C 3.59375 0.304688 4.203125 0.40625 4.738281 0.558594 C 5.070312 0.355469 5.988281 -0.179688 6.164062 -0.179688 C 6.191406 -0.179688 6.191406 -0.152344 6.191406 -0.152344 C 8 -1.960938 8.101562 -2.574219 8.457031 -3.03125 C 8.839844 -3.515625 8.40625 -4.304688 8.96875 -4.613281 C 9.070312 -4.714844 9.476562 -6.75 9.476562 -6.90625 C 9.578125 -7.644531 9.757812 -7.796875 10.726562 -8.28125 C 11.464844 -8.636719 12.28125 -9.042969 13.144531 -9.121094 C 13.960938 -9.199219 14.214844 -9.425781 14.214844 -9.628906 C 14.214844 -9.859375 13.886719 -10.089844 13.757812 -10.089844 C 13.730469 -10.089844 13.707031 -10.0625 13.707031 -10.039062 Z M 8.078125 -6.265625 C 8 -5.808594 8.050781 -5.09375 7.769531 -4.917969 C 7.3125 -4.613281 6.320312 -1.554688 5.070312 -1.554688 C 4.40625 -1.554688 4.078125 -2.597656 4.078125 -3.109375 C 4.078125 -3.414062 4.253906 -3.820312 4.253906 -4.152344 C 4.253906 -4.28125 4.230469 -4.40625 4.230469 -4.535156 C 4.230469 -5.324219 4.40625 -6.089844 4.917969 -6.214844 C 5.910156 -6.214844 6.828125 -6.597656 7.746094 -6.929688 C 8.128906 -6.929688 8.027344 -6.597656 8.078125 -6.265625 Z M 4.382812 -12 C 6.140625 -12 7.210938 -10.320312 7.847656 -8.941406 C 7.921875 -8.789062 7.921875 -8.636719 7.921875 -8.484375 C 7.921875 -7.898438 6.445312 -7.617188 5.785156 -7.542969 C 5.65625 -7.542969 5.453125 -7.566406 5.453125 -7.769531 C 5.453125 -8 5.808594 -8.457031 5.808594 -8.6875 C 5.808594 -9.273438 4.253906 -9.65625 4.101562 -9.707031 C 3.921875 -9.785156 3.796875 -9.808594 3.71875 -9.808594 C 3.542969 -9.808594 3.464844 -9.65625 3.109375 -9.300781 C 3.109375 -9.273438 3.082031 -9.273438 3.058594 -9.273438 C 2.726562 -9.273438 2.726562 -9.808594 2.726562 -10.039062 C 2.726562 -10.777344 3.183594 -11.820312 3.972656 -11.921875 C 4.128906 -11.949219 4.28125 -11.972656 4.382812 -12 Z M 4.382812 -12 "/></g></g></g><g fill="#000000" fill-opacity="1"><g transform="translate(196.516919, 250.098864)"><g><path d="M 1.25 -5.65625 C 1.199219 -5.453125 1.09375 -5.121094 1.09375 -4.890625 C 1.09375 -4.765625 1.222656 -4.613281 1.222656 -4.457031 C 1.222656 -4.40625 1.199219 -4.382812 1.199219 -4.355469 C 0.867188 -3.949219 0.765625 -3.082031 0.765625 -2.597656 C 0.765625 -2.164062 0.867188 -1.808594 0.867188 -1.453125 C 0.867188 -1.199219 0.816406 -0.992188 0.816406 -0.765625 C 0.816406 0.078125 1.042969 0.941406 1.679688 0.941406 C 2.648438 0.941406 3.109375 -1.273438 3.082031 -1.222656 C 3.542969 -2.039062 3.515625 -2.980469 3.871094 -3.847656 C 4.613281 -5.605469 4.433594 -6.164062 4.867188 -6.800781 C 5.121094 -7.183594 5.25 -7.617188 5.425781 -8.027344 C 5.910156 -9.222656 7.210938 -11.210938 8.230469 -11.820312 C 8.253906 -11.820312 8.253906 -11.847656 8.28125 -11.847656 C 8.664062 -11.847656 8.355469 -8.765625 9.425781 -8.765625 C 9.808594 -8.765625 9.679688 -9.527344 10.140625 -9.859375 C 10.878906 -10.394531 11.082031 -10.777344 11.082031 -11.746094 C 11.082031 -12.664062 10.699219 -14.039062 9.324219 -14.039062 C 8.457031 -14.039062 7.335938 -12.992188 7.234375 -12.585938 C 7.160156 -12.253906 6.445312 -11.617188 6.011719 -11.03125 C 6.039062 -11.261719 6.089844 -11.386719 6.089844 -11.542969 C 5.9375 -12.101562 5.859375 -13.019531 5.070312 -13.019531 C 4.789062 -13.019531 4.535156 -12.917969 4.253906 -12.917969 C 4.203125 -12.917969 4.128906 -12.941406 4.078125 -12.941406 C 3.871094 -12.941406 3.210938 -11.667969 3.082031 -11.363281 C 2.675781 -10.472656 2.011719 -9.476562 1.960938 -8.535156 C 1.960938 -8.253906 1.679688 -7.769531 1.679688 -7.335938 C 1.679688 -7.210938 1.679688 -7.109375 1.707031 -6.980469 C 1.503906 -6.777344 1.351562 -5.859375 1.042969 -5.808594 Z M 4.507812 -7.796875 L 4.433594 -7.796875 L 4.484375 -7.871094 Z M 4.507812 -7.796875 "/></g></g></g><g fill="#000000" fill-opacity="1"><g transform="translate(207.599205, 250.098864)"><g><path d="M 2.726562 1.199219 C 2.699219 1.199219 2.675781 1.171875 2.648438 1.148438 C 2.675781 1.171875 2.675781 1.171875 2.699219 1.199219 C 2.648438 1.300781 2.625 1.402344 2.625 1.476562 C 2.625 1.835938 2.90625 2.214844 3.261719 2.214844 C 4.050781 2.214844 4.230469 1.019531 4.230469 0.6875 C 4.230469 0.230469 3.644531 -1.148438 3.59375 -1.171875 C 3.492188 -1.222656 3.441406 -1.25 3.441406 -1.273438 C 3.441406 -1.351562 3.695312 -1.554688 3.695312 -1.679688 C 3.695312 -1.886719 3.285156 -3.285156 3.109375 -3.3125 C 3.03125 -3.335938 3.007812 -3.414062 3.007812 -3.492188 C 3.007812 -3.644531 3.414062 -4.050781 3.414062 -4.101562 C 3.542969 -4.101562 4.128906 -3.949219 4.433594 -3.464844 C 4.917969 -2.699219 5.679688 -2.164062 6.292969 -1.554688 C 6.496094 -1.375 6.828125 -1.351562 6.929688 -1.019531 C 7.210938 -0.484375 9.628906 -0.0507812 9.730469 -0.0507812 C 10.371094 -0.0507812 10.851562 -0.40625 11.132812 -0.941406 C 10.421875 -2.089844 9.476562 -1.679688 8.738281 -2.445312 C 8.28125 -3.03125 7.617188 -3.3125 7.160156 -3.820312 C 6.421875 -4.636719 5.351562 -5.757812 5.121094 -6.675781 C 5.171875 -6.777344 5.25 -6.878906 5.324219 -6.957031 C 6.140625 -7.644531 6.929688 -8.789062 7.335938 -9.628906 C 7.667969 -10.34375 8.203125 -11.285156 8.203125 -11.949219 C 8.203125 -12.304688 7.847656 -12.816406 7.414062 -12.816406 C 5.785156 -12.816406 3.769531 -9.65625 3.515625 -9.65625 C 3.464844 -9.65625 3.414062 -9.707031 3.414062 -9.757812 C 3.464844 -9.9375 3.492188 -10.140625 3.542969 -10.320312 C 3.464844 -10.394531 3.441406 -10.472656 3.441406 -10.574219 C 3.441406 -10.777344 3.71875 -10.929688 3.71875 -11.261719 C 3.71875 -12 3.746094 -12.816406 4.027344 -13.503906 C 4.078125 -13.605469 4.128906 -13.707031 4.128906 -13.808594 C 4.128906 -13.910156 4.101562 -14.011719 3.972656 -14.089844 C 3.972656 -14.75 4.28125 -15.335938 4.28125 -15.644531 C 4.28125 -16.992188 4.714844 -18.421875 4.714844 -19.644531 C 4.714844 -20.765625 4.535156 -21.121094 3.667969 -21.121094 C 3.285156 -21.121094 2.523438 -20.992188 2.523438 -20.765625 C 2.523438 -20.609375 2.597656 -20.433594 2.597656 -20.28125 C 2.597656 -19.644531 2.371094 -18.957031 2.371094 -18.316406 C 2.371094 -18.089844 2.496094 -17.859375 2.496094 -17.605469 C 2.496094 -16.941406 2.039062 -16.585938 2.039062 -16.382812 C 2.039062 -16.179688 2.242188 -15.921875 2.242188 -15.667969 C 2.242188 -15.3125 1.988281 -15.132812 1.988281 -14.957031 C 1.988281 -14.828125 2.089844 -14.699219 2.089844 -14.546875 C 2.089844 -14.394531 1.910156 -14.292969 1.910156 -14.140625 C 1.910156 -13.9375 2.011719 -13.730469 2.011719 -13.527344 C 2.011719 -12.789062 1.707031 -11.972656 1.707031 -11.210938 C 1.707031 -10.929688 1.960938 -10.699219 1.960938 -10.445312 C 1.960938 -10.113281 1.628906 -9.527344 1.628906 -9.070312 C 1.628906 -8.816406 1.734375 -8.535156 1.734375 -8.28125 C 1.734375 -8.179688 1.679688 -8.050781 1.679688 -7.949219 C 1.679688 -7.695312 1.960938 -7.542969 1.960938 -7.3125 C 1.960938 -7.082031 1.628906 -6.878906 1.628906 -6.574219 C 1.578125 -6.011719 1.527344 -5.425781 1.527344 -4.867188 C 1.527344 -4.433594 1.886719 -4.203125 1.886719 -3.796875 C 1.910156 -3.515625 1.910156 -3.234375 1.960938 -2.957031 C 1.960938 -2.648438 1.734375 -2.472656 1.734375 -2.292969 C 1.734375 -2.011719 1.960938 -1.65625 1.960938 -1.324219 C 1.960938 -0.867188 2.089844 0.433594 2.140625 0.457031 C 2.421875 0.636719 2.394531 1.070312 2.726562 1.199219 Z M 3.007812 -9.730469 C 2.980469 -9.707031 2.957031 -9.679688 2.90625 -9.679688 C 2.878906 -9.679688 2.851562 -9.679688 2.828125 -9.707031 C 2.828125 -9.707031 2.851562 -9.757812 2.878906 -9.757812 C 2.929688 -9.757812 2.980469 -9.757812 3.007812 -9.730469 Z M 7.210938 -11.949219 C 7.210938 -10.90625 6.472656 -9.9375 6.394531 -9.808594 C 5.785156 -9.042969 5.476562 -8.28125 4.40625 -7.695312 C 4.355469 -7.667969 4.304688 -7.667969 4.253906 -7.667969 C 3.972656 -7.667969 3.746094 -7.769531 3.746094 -7.949219 C 3.746094 -8.382812 4.433594 -9.300781 4.6875 -9.785156 C 5.171875 -10.675781 6.445312 -12.023438 7.109375 -12.023438 C 7.132812 -12.023438 7.183594 -12 7.210938 -11.949219 Z M 2.75 -4.738281 C 2.75 -4.636719 2.800781 -4.304688 2.445312 -4.230469 C 2.394531 -4.230469 2.292969 -4.355469 2.292969 -4.433594 C 2.292969 -4.457031 2.699219 -5.144531 2.699219 -5.144531 C 2.75 -5.144531 2.75 -5.070312 2.75 -4.96875 C 2.75 -4.917969 2.75 -4.816406 2.75 -4.738281 Z M 2.699219 -2.113281 C 2.574219 -2.34375 2.597656 -2.597656 2.574219 -2.828125 C 2.574219 -2.851562 2.625 -2.90625 2.648438 -2.90625 C 2.777344 -2.777344 2.777344 -2.625 2.777344 -2.421875 C 2.777344 -2.320312 2.75 -2.214844 2.699219 -2.113281 Z M 3.007812 -0.890625 C 3.03125 -0.917969 3.03125 -1.042969 3.058594 -1.042969 C 3.109375 -1.042969 3.160156 -0.941406 3.160156 -0.839844 C 3.160156 -0.738281 3.132812 -0.714844 3.058594 -0.636719 C 3.03125 -0.6875 2.980469 -0.765625 2.980469 -0.816406 C 2.980469 -0.839844 3.007812 -0.867188 3.007812 -0.890625 Z M 2.777344 -3.515625 C 2.75 -3.441406 2.675781 -3.386719 2.648438 -3.386719 C 2.597656 -3.386719 2.546875 -3.441406 2.546875 -3.515625 C 2.546875 -3.59375 2.625 -3.617188 2.699219 -3.644531 C 2.726562 -3.617188 2.75 -3.566406 2.777344 -3.515625 Z M 2.726562 -8.050781 C 2.625 -8.152344 2.648438 -8.128906 2.648438 -8.203125 C 2.648438 -8.28125 2.648438 -8.355469 2.726562 -8.382812 C 2.777344 -8.332031 2.800781 -8.28125 2.800781 -8.253906 C 2.800781 -8.152344 2.726562 -8.078125 2.726562 -8.050781 Z M 2.34375 -5.503906 C 2.292969 -5.554688 2.265625 -5.554688 2.265625 -5.628906 C 2.265625 -5.679688 2.265625 -5.808594 2.34375 -5.808594 C 2.371094 -5.734375 2.394531 -5.65625 2.394531 -5.578125 C 2.394531 -5.554688 2.371094 -5.527344 2.34375 -5.503906 Z M 3.082031 -4.664062 L 3.109375 -4.585938 L 3.03125 -4.585938 Z M 3.082031 -4.664062 "/></g></g></g><g fill="#000000" fill-opacity="1"><g transform="translate(217.458622, 250.098864)"><g/></g></g><g fill="#000000" fill-opacity="1"><g transform="translate(224.337276, 250.098864)"><g><path d="M 3.007812 0.558594 C 3.898438 0.558594 4.253906 0.433594 4.839844 -0.941406 C 5.425781 -2.34375 5.960938 -4.152344 6.726562 -5.09375 C 7.386719 -5.910156 7.335938 -6.90625 8.507812 -7.160156 C 10.546875 -7.59375 12.585938 -8.585938 14.496094 -8.714844 C 14.75 -8.738281 14.957031 -9.019531 14.957031 -9.25 C 14.957031 -9.578125 14.34375 -9.9375 13.960938 -9.9375 C 12.253906 -9.9375 10.496094 -9.578125 8.839844 -9.171875 C 7.617188 -8.867188 5.808594 -8.738281 5.808594 -8.027344 C 5.808594 -7.820312 5.757812 -7.59375 5.757812 -7.386719 C 5.757812 -7.234375 5.808594 -7.058594 5.808594 -6.90625 C 5.808594 -6.546875 5.707031 -6.214844 5.425781 -5.9375 C 5.273438 -5.785156 5.144531 -5.300781 4.941406 -5.042969 C 4.664062 -4.6875 3.921875 -3.183594 3.695312 -3.183594 C 3.566406 -3.183594 3.566406 -3.441406 3.566406 -3.566406 C 3.566406 -6.214844 4.078125 -8.738281 4.078125 -11.59375 C 4.078125 -12.152344 2.828125 -12.332031 2.242188 -12.332031 C 1.988281 -12.332031 1.9375 -11.949219 1.9375 -11.71875 C 1.9375 -11.492188 2.089844 -11.234375 2.089844 -11.007812 C 2.089844 -10.648438 1.9375 -10.113281 1.910156 -9.679688 C 1.785156 -8.050781 1.757812 -6.421875 1.554688 -4.816406 C 1.554688 -4.664062 1.527344 -4.507812 1.527344 -4.355469 C 1.527344 -2.851562 1.554688 -1.25 2.265625 0.078125 C 2.496094 0.230469 2.726562 0.382812 3.007812 0.558594 Z M 3.007812 0.558594 "/></g></g></g><g fill="#000000" fill-opacity="1"><g transform="translate(236.489573, 250.098864)"><g><path d="M 13.707031 -10.039062 C 12.355469 -9.960938 11.132812 -9.425781 9.859375 -8.992188 C 9.785156 -8.96875 9.707031 -8.941406 9.628906 -8.941406 C 9.199219 -8.941406 9.121094 -9.476562 9.019531 -9.886719 C 8.738281 -10.828125 7.796875 -11.871094 7.082031 -12.128906 C 6.472656 -12.332031 5.910156 -12.867188 5.222656 -12.867188 C 4.789062 -12.867188 4.382812 -12.867188 4 -12.867188 C 2.320312 -12.867188 1.300781 -12.636719 1.300781 -9.988281 C 1.300781 -9.25 2.011719 -8.203125 2.011719 -7.667969 C 2.011719 -7.082031 1.476562 -5.808594 1.476562 -5.476562 C 1.476562 -4.992188 1.273438 -4.535156 1.273438 -4.027344 C 1.273438 -1.402344 3.082031 -0.0507812 3.082031 -0.0507812 C 3.59375 0.304688 4.203125 0.40625 4.738281 0.558594 C 5.070312 0.355469 5.988281 -0.179688 6.164062 -0.179688 C 6.191406 -0.179688 6.191406 -0.152344 6.191406 -0.152344 C 8 -1.960938 8.101562 -2.574219 8.457031 -3.03125 C 8.839844 -3.515625 8.40625 -4.304688 8.96875 -4.613281 C 9.070312 -4.714844 9.476562 -6.75 9.476562 -6.90625 C 9.578125 -7.644531 9.757812 -7.796875 10.726562 -8.28125 C 11.464844 -8.636719 12.28125 -9.042969 13.144531 -9.121094 C 13.960938 -9.199219 14.214844 -9.425781 14.214844 -9.628906 C 14.214844 -9.859375 13.886719 -10.089844 13.757812 -10.089844 C 13.730469 -10.089844 13.707031 -10.0625 13.707031 -10.039062 Z M 8.078125 -6.265625 C 8 -5.808594 8.050781 -5.09375 7.769531 -4.917969 C 7.3125 -4.613281 6.320312 -1.554688 5.070312 -1.554688 C 4.40625 -1.554688 4.078125 -2.597656 4.078125 -3.109375 C 4.078125 -3.414062 4.253906 -3.820312 4.253906 -4.152344 C 4.253906 -4.28125 4.230469 -4.40625 4.230469 -4.535156 C 4.230469 -5.324219 4.40625 -6.089844 4.917969 -6.214844 C 5.910156 -6.214844 6.828125 -6.597656 7.746094 -6.929688 C 8.128906 -6.929688 8.027344 -6.597656 8.078125 -6.265625 Z M 4.382812 -12 C 6.140625 -12 7.210938 -10.320312 7.847656 -8.941406 C 7.921875 -8.789062 7.921875 -8.636719 7.921875 -8.484375 C 7.921875 -7.898438 6.445312 -7.617188 5.785156 -7.542969 C 5.65625 -7.542969 5.453125 -7.566406 5.453125 -7.769531 C 5.453125 -8 5.808594 -8.457031 5.808594 -8.6875 C 5.808594 -9.273438 4.253906 -9.65625 4.101562 -9.707031 C 3.921875 -9.785156 3.796875 -9.808594 3.71875 -9.808594 C 3.542969 -9.808594 3.464844 -9.65625 3.109375 -9.300781 C 3.109375 -9.273438 3.082031 -9.273438 3.058594 -9.273438 C 2.726562 -9.273438 2.726562 -9.808594 2.726562 -10.039062 C 2.726562 -10.777344 3.183594 -11.820312 3.972656 -11.921875 C 4.128906 -11.949219 4.28125 -11.972656 4.382812 -12 Z M 4.382812 -12 "/></g></g></g><g fill="#000000" fill-opacity="1"><g transform="translate(247.903051, 250.098864)"><g><path d="M 5.859375 -7.210938 C 5.960938 -7.746094 6.011719 -7.921875 6.011719 -8.535156 C 6.011719 -8.917969 6.34375 -9.199219 6.34375 -9.578125 C 6.421875 -10.214844 6.472656 -10.828125 6.546875 -11.464844 C 6.523438 -11.492188 6.523438 -11.542969 6.523438 -11.566406 C 6.523438 -11.746094 6.648438 -11.921875 6.648438 -12.101562 C 6.648438 -12.152344 6.648438 -12.230469 6.625 -12.28125 C 6.800781 -12.6875 8.507812 -13.527344 8.484375 -13.527344 C 9.324219 -13.707031 9.910156 -13.707031 10.726562 -14.214844 C 10.800781 -14.265625 10.90625 -14.292969 11.007812 -14.292969 C 11.082031 -14.292969 11.183594 -14.265625 11.261719 -14.265625 C 11.414062 -14.265625 11.59375 -14.445312 11.695312 -14.445312 C 11.820312 -14.445312 12.101562 -14.292969 12.152344 -14.292969 C 12.253906 -14.292969 12.738281 -14.75 12.738281 -14.929688 C 12.738281 -15.007812 12.714844 -15.082031 12.664062 -15.183594 C 12.636719 -15.132812 12.585938 -15.109375 12.558594 -15.109375 C 12.28125 -15.109375 12.6875 -16.101562 11.644531 -16.101562 C 11.285156 -16.101562 11.335938 -15.644531 11.109375 -15.644531 C 10.957031 -15.644531 10.828125 -15.972656 10.675781 -15.972656 C 10.371094 -15.972656 9.886719 -15.335938 9.527344 -15.335938 C 8.765625 -15.335938 7.796875 -14.851562 7.386719 -14.699219 C 7.132812 -14.800781 7.183594 -15.132812 6.957031 -15.285156 C 6.957031 -15.261719 6.980469 -15.234375 6.980469 -15.210938 C 7.007812 -15.234375 7.007812 -15.261719 7.007812 -15.261719 C 6.980469 -15.261719 6.957031 -15.261719 6.929688 -15.234375 C 7.082031 -15.335938 7.132812 -15.695312 7.132812 -16.050781 C 7.132812 -17.144531 6.929688 -17.730469 6.089844 -17.730469 C 5.425781 -17.730469 5.199219 -17.351562 4.890625 -16.765625 C 4.917969 -16.535156 4.941406 -16.304688 4.941406 -16.078125 C 4.941406 -15.132812 4.867188 -13.453125 4.203125 -13.300781 C 3.210938 -13.144531 2.472656 -12.433594 2.394531 -12.433594 C 2.113281 -12.433594 1.554688 -11.972656 1.019531 -11.871094 C 0.714844 -11.820312 0 -11.820312 0 -11.542969 C 0 -10.777344 1.402344 -10.546875 1.679688 -10.546875 C 2.980469 -10.546875 3.132812 -11.285156 3.898438 -11.285156 C 3.972656 -11.335938 3.972656 -11.4375 4.152344 -11.4375 C 4.332031 -11.4375 4.457031 -11.3125 4.457031 -11.160156 C 4.457031 -11.058594 4.433594 -10.957031 4.433594 -10.851562 C 4.433594 -10.699219 4.585938 -10.574219 4.585938 -10.421875 C 4.585938 -10.34375 4.558594 -10.265625 4.535156 -10.214844 C 4.28125 -9.730469 4.203125 -9.25 4.203125 -8.765625 C 4.203125 -8.613281 4.230469 -8.433594 4.230469 -8.304688 C 4.230469 -8.101562 4.152344 -7.898438 4.152344 -7.71875 C 4.152344 -7.464844 4.230469 -7.210938 4.230469 -6.957031 C 4.230469 -6.878906 4.203125 -6.800781 4.203125 -6.75 C 4.203125 -6.648438 4.457031 -6.496094 4.457031 -6.34375 C 4.457031 -6.140625 4.101562 -6.089844 4.101562 -5.9375 C 4.101562 -5.734375 4.535156 -5.886719 4.535156 -5.503906 L 4.535156 -5.527344 C 4.738281 -5.628906 4.765625 -5.835938 4.765625 -6.0625 C 4.765625 -6.242188 4.738281 -6.421875 4.738281 -6.597656 C 4.738281 -7.058594 5.121094 -7.363281 5.121094 -7.464844 C 5.121094 -7.695312 4.765625 -8.027344 4.765625 -8.230469 C 4.765625 -8.433594 4.917969 -8.558594 5.144531 -8.789062 C 5.121094 -8.765625 5.121094 -8.738281 5.121094 -8.738281 C 5.144531 -8.765625 5.144531 -8.738281 5.144531 -8.789062 C 5.144531 -8.789062 5.121094 -8.765625 5.09375 -8.765625 C 5.09375 -8.457031 5.25 -7.515625 5.476562 -7.515625 C 5.578125 -7.515625 5.65625 -7.542969 5.707031 -7.542969 C 5.835938 -7.542969 5.835938 -7.464844 5.859375 -7.210938 Z M 5.25 -9.425781 C 5.222656 -9.453125 5.199219 -9.453125 5.199219 -9.453125 C 5.199219 -9.476562 5.199219 -9.527344 5.222656 -9.527344 C 5.25 -9.527344 5.273438 -9.527344 5.273438 -9.503906 C 5.273438 -9.476562 5.25 -9.453125 5.25 -9.425781 Z M 5.375 -10.546875 C 5.453125 -10.546875 5.453125 -10.496094 5.453125 -10.472656 C 5.425781 -10.445312 5.402344 -10.421875 5.402344 -10.421875 C 5.375 -10.421875 5.351562 -10.445312 5.351562 -10.496094 C 5.351562 -10.523438 5.375 -10.546875 5.375 -10.546875 Z M 5.351562 -5.910156 C 5.351562 -5.910156 5.375 -5.9375 5.375 -5.9375 C 5.375 -5.707031 5.300781 -5.476562 5.300781 -5.25 C 5.300781 -5.144531 5.351562 -5.042969 5.351562 -4.941406 C 5.351562 -4.613281 5.042969 -4.230469 5.042969 -4.128906 C 5.042969 -3.949219 5.300781 -3.71875 5.300781 -3.464844 C 5.300781 -3.234375 5.121094 -3.03125 5.121094 -2.777344 C 5.121094 -2.726562 5.144531 -2.648438 5.144531 -2.597656 C 5.144531 -2.496094 5.070312 -2.265625 4.992188 -2.265625 C 4.714844 -2.265625 4.664062 -2.90625 4.664062 -3.542969 C 4.664062 -3.796875 4.6875 -4.027344 4.6875 -4.230469 C 4.6875 -4.585938 4.664062 -4.839844 4.585938 -4.839844 C 4.457031 -4.789062 4.457031 -4.664062 4.457031 -4.558594 C 4.457031 -4.457031 4.484375 -4.382812 4.484375 -4.28125 C 4.484375 -4.078125 4.40625 -3.871094 4.304688 -3.71875 L 4.332031 -3.71875 C 4.507812 -3.644531 4.585938 -3.59375 4.585938 -3.492188 C 4.585938 -3.261719 4.355469 -3.082031 4.253906 -3.082031 C 4.078125 -3.082031 4 -3.261719 3.898438 -3.261719 C 3.644531 -3.261719 3.644531 -2.394531 3.464844 -2.0625 C 3.464844 -2.011719 3.59375 -1.910156 3.644531 -1.910156 C 3.847656 -1.910156 3.972656 -2.699219 4.179688 -2.699219 C 4.28125 -2.699219 4.304688 -2.597656 4.355469 -2.523438 C 4.355469 -2.242188 4.027344 -1.960938 4.027344 -1.605469 C 4.027344 -1.503906 4.050781 -1.402344 4.050781 -1.300781 C 4.050781 -0.816406 3.492188 0 3.492188 0.101562 C 3.492188 0.40625 3.796875 1.121094 3.796875 1.222656 C 3.796875 1.300781 3.769531 1.402344 3.769531 1.476562 C 3.769531 1.910156 4.355469 2.523438 4.355469 3.058594 C 4.332031 3.132812 4.332031 3.183594 4.332031 3.234375 C 4.332031 3.542969 4.941406 4.152344 5.605469 4.152344 C 5.785156 4.152344 6.472656 4.050781 6.597656 3.667969 C 6.597656 3.617188 6.75 3.566406 6.828125 3.566406 C 6.878906 3.566406 6.929688 3.59375 6.980469 3.59375 C 7.03125 3.59375 7.769531 2.90625 7.796875 2.800781 C 7.871094 2.523438 8.179688 2.574219 8.179688 2.292969 C 8.253906 1.9375 8.28125 1.910156 8.6875 1.910156 C 8.714844 1.910156 8.816406 1.988281 8.867188 1.988281 C 8.992188 1.988281 8.941406 1.527344 8.96875 1.324219 C 9.042969 0.890625 9.628906 0.941406 9.628906 0.101562 C 9.628906 -0.40625 9.476562 -1.019531 9.476562 -1.578125 C 9.476562 -1.886719 9.503906 -2.191406 9.554688 -2.496094 C 9.808594 -2.777344 9.910156 -2.878906 9.910156 -3.058594 C 9.910156 -3.160156 9.859375 -3.261719 9.808594 -3.464844 C 9.09375 -2.445312 8.382812 -1.527344 7.796875 -0.457031 C 7.386719 0.28125 6.546875 1.734375 6.140625 1.734375 C 5.351562 1.734375 6.011719 0.585938 5.476562 0.28125 C 5.375 0.230469 5.351562 0 5.351562 -0.078125 C 5.351562 -0.355469 5.65625 -0.433594 5.65625 -0.613281 C 5.65625 -0.867188 5.375 -1.019531 5.375 -1.273438 C 5.375 -2.394531 5.605469 -3.441406 5.605469 -4.636719 C 5.605469 -4.765625 5.554688 -4.917969 5.554688 -5.042969 C 5.554688 -5.351562 5.734375 -5.578125 5.835938 -5.910156 C 5.707031 -5.910156 5.605469 -5.859375 5.476562 -5.859375 C 5.453125 -5.859375 5.402344 -5.859375 5.351562 -5.910156 Z M 4.765625 -1.25 C 4.789062 -1.476562 4.714844 -1.734375 4.992188 -1.859375 C 5.09375 -1.859375 5.144531 -1.476562 5.144531 -1.351562 C 5.144531 -1.148438 5.042969 -0.714844 4.738281 -0.714844 C 4.714844 -0.714844 4.6875 -0.765625 4.6875 -0.789062 C 4.714844 -0.941406 4.738281 -1.09375 4.765625 -1.25 Z M 8.507812 1.453125 C 8.40625 1.402344 8.253906 1.453125 8.253906 1.25 C 8.304688 1.148438 8.332031 1.070312 8.457031 1.070312 C 8.585938 1.070312 8.6875 1.148438 8.6875 1.273438 C 8.6875 1.476562 8.6875 1.453125 8.507812 1.453125 Z M 8.738281 0.40625 C 8.664062 0.535156 8.613281 0.558594 8.535156 0.558594 C 8.457031 0.507812 8.382812 0.457031 8.382812 0.40625 C 8.382812 0.28125 8.433594 0.230469 8.507812 0.230469 C 8.585938 0.230469 8.664062 0.355469 8.738281 0.40625 Z M 9.324219 -1.070312 C 9.300781 -1.070312 9.300781 -1.042969 9.273438 -1.042969 C 9.222656 -1.042969 9.199219 -1.121094 9.199219 -1.171875 C 9.199219 -1.199219 9.222656 -1.25 9.273438 -1.25 C 9.300781 -1.25 9.324219 -1.148438 9.324219 -1.070312 Z M 7.972656 1.988281 C 7.972656 2.0625 7.972656 2.113281 7.898438 2.113281 C 7.847656 2.113281 7.847656 2.011719 7.847656 1.960938 C 7.871094 1.9375 7.898438 1.910156 7.921875 1.910156 C 7.949219 1.9375 7.972656 1.960938 7.972656 1.988281 Z M 8.613281 -0.585938 C 8.636719 -0.636719 8.664062 -0.6875 8.6875 -0.738281 C 8.6875 -0.714844 8.738281 -0.6875 8.738281 -0.664062 C 8.714844 -0.613281 8.6875 -0.585938 8.664062 -0.535156 C 8.664062 -0.558594 8.636719 -0.558594 8.613281 -0.585938 Z M 5.835938 -7.234375 C 5.835938 -7.234375 5.859375 -7.210938 5.859375 -7.210938 C 5.527344 -7.109375 5.375 -7.132812 5.273438 -6.574219 C 5.199219 -6.625 5.09375 -6.675781 5.042969 -6.777344 C 4.917969 -6.523438 4.941406 -6.191406 4.941406 -5.886719 C 4.941406 -5.835938 5.019531 -5.757812 5.09375 -5.757812 C 5.171875 -5.757812 5.273438 -5.859375 5.375 -5.9375 C 5.375 -5.9375 5.351562 -5.910156 5.351562 -5.910156 C 5.351562 -6.265625 5.960938 -6.371094 5.960938 -6.828125 C 5.960938 -6.957031 5.910156 -7.082031 5.835938 -7.234375 Z M 10.957031 -5.554688 C 11.082031 -5.476562 11.234375 -5.324219 11.386719 -5.324219 C 11.746094 -5.324219 12 -6.0625 12 -6.472656 C 12 -6.523438 11.949219 -6.546875 11.898438 -6.546875 C 11.386719 -6.546875 11.363281 -5.808594 10.957031 -5.554688 Z M 16.613281 -10.648438 C 17.144531 -10.828125 17.273438 -10.828125 17.273438 -11.386719 C 17.273438 -11.4375 17.171875 -11.492188 17.144531 -11.492188 C 16.789062 -11.464844 16.382812 -11.234375 16.382812 -10.851562 C 16.382812 -10.699219 16.507812 -10.648438 16.613281 -10.648438 Z M 13.121094 -7.644531 C 13.222656 -7.644531 13.476562 -7.949219 13.476562 -8.050781 C 13.476562 -8.128906 13.402344 -8.230469 13.300781 -8.230469 C 13.121094 -8.230469 13.019531 -8 13.019531 -7.898438 C 13.019531 -7.796875 13.019531 -7.746094 13.121094 -7.644531 Z M 3.847656 -4.714844 C 3.847656 -4.40625 3.820312 -4.253906 3.921875 -4.253906 C 3.972656 -4.28125 4 -4.355469 4 -4.382812 C 4 -4.507812 3.921875 -4.558594 3.847656 -4.714844 Z M 12.484375 -6.957031 C 12.507812 -6.980469 12.507812 -7.007812 12.507812 -7.03125 C 12.507812 -7.058594 12.457031 -7.109375 12.382812 -7.109375 C 12.332031 -7.109375 12.304688 -7.082031 12.28125 -7.03125 C 12.28125 -6.980469 12.304688 -6.929688 12.332031 -6.878906 C 12.382812 -6.90625 12.433594 -6.929688 12.484375 -6.957031 Z M 10.394531 -4.101562 C 10.292969 -4.101562 10.214844 -4.027344 10.214844 -3.972656 C 10.214844 -3.921875 10.292969 -3.871094 10.421875 -3.871094 C 10.523438 -3.871094 10.597656 -3.921875 10.597656 -4 C 10.597656 -4.078125 10.523438 -4.101562 10.394531 -4.101562 Z M 14.90625 -9.757812 C 14.929688 -9.757812 14.929688 -9.730469 14.957031 -9.730469 C 15.007812 -9.730469 15.058594 -9.835938 15.058594 -9.886719 C 15.058594 -9.9375 15.007812 -10.011719 14.957031 -10.011719 C 14.90625 -10.011719 14.828125 -9.960938 14.828125 -9.886719 C 14.828125 -9.859375 14.878906 -9.808594 14.90625 -9.757812 Z M 14.292969 -9.324219 C 14.371094 -9.324219 14.472656 -9.25 14.546875 -9.25 C 14.597656 -9.25 14.648438 -9.300781 14.648438 -9.351562 C 14.597656 -9.425781 14.546875 -9.453125 14.472656 -9.453125 C 14.394531 -9.453125 14.34375 -9.375 14.292969 -9.324219 Z M 14.265625 -9.375 C 14.265625 -9.375 14.292969 -9.324219 14.292969 -9.324219 C 14.191406 -9.273438 14.039062 -9.171875 14.039062 -9.09375 C 14.039062 -9.070312 14.0625 -9.042969 14.113281 -9.042969 C 14.214844 -9.042969 14.242188 -9.273438 14.265625 -9.375 Z M 10.242188 -3.082031 C 10.242188 -3.109375 10.242188 -3.132812 10.214844 -3.160156 C 10.214844 -3.132812 10.164062 -3.132812 10.164062 -3.109375 C 10.164062 -3.082031 10.191406 -3.058594 10.191406 -3.03125 C 10.214844 -3.058594 10.242188 -3.058594 10.242188 -3.082031 Z M 4.332031 -5.25 C 4.28125 -5.222656 4.128906 -5.25 4.050781 -5.171875 C 4.101562 -5.144531 4.152344 -5.070312 4.179688 -5.070312 C 4.28125 -5.070312 4.332031 -5.144531 4.332031 -5.25 Z M 4.535156 -5.527344 C 4.457031 -5.425781 4.40625 -5.351562 4.332031 -5.25 C 4.332031 -5.25 4.355469 -5.222656 4.355469 -5.222656 C 4.433594 -5.324219 4.507812 -5.402344 4.535156 -5.527344 Z M 4.332031 -3.71875 C 4.332031 -3.71875 4.304688 -3.71875 4.304688 -3.71875 C 4.332031 -3.71875 4.332031 -3.71875 4.355469 -3.71875 C 4.332031 -3.695312 4.332031 -3.695312 4.304688 -3.695312 C 4.304688 -3.695312 4.332031 -3.71875 4.332031 -3.71875 Z M 4.332031 -3.71875 "/></g></g></g><g fill="#000000" fill-opacity="1"><g transform="translate(261.60941, 250.098864)"><g><path d="M 1.707031 -8.992188 C 1.734375 -8.890625 1.757812 -8.789062 1.757812 -8.6875 C 1.757812 -8.585938 1.707031 -8.613281 1.679688 -8.585938 C 1.65625 -8.613281 1.628906 -8.664062 1.628906 -8.714844 C 1.628906 -8.816406 1.679688 -8.917969 1.734375 -8.992188 C 1.351562 -8.457031 1.453125 -7.644531 1.09375 -7.210938 C 0.765625 -6.800781 0.789062 -5.628906 0.789062 -5.121094 C 0.789062 -4.917969 0.96875 -4.714844 0.96875 -4.535156 C 0.96875 -4.40625 0.839844 -4.253906 0.839844 -4.128906 C 0.839844 -3.949219 0.941406 -3.796875 0.941406 -3.644531 C 0.941406 -3.542969 0.867188 -3.441406 0.867188 -3.363281 C 0.867188 -3.160156 1.148438 -2.957031 1.148438 -2.726562 C 1.148438 -2.597656 1.09375 -2.472656 1.09375 -2.371094 C 1.09375 -2.292969 1.402344 -1.402344 1.835938 -1.171875 C 1.9375 -1.121094 2.011719 -0.992188 2.0625 -0.867188 C 2.597656 -0.078125 3.285156 -0.101562 4.28125 0 C 4.433594 -0.101562 4.585938 -0.203125 4.765625 -0.304688 C 4.839844 -0.253906 4.941406 -0.230469 5.019531 -0.230469 C 5.453125 -0.230469 7.132812 -2.292969 7.542969 -2.445312 C 7.972656 -2.597656 8.355469 -3.746094 9.070312 -4.101562 C 9.351562 -4.101562 9.476562 -4.507812 9.476562 -4.714844 C 9.476562 -4.96875 10.851562 -6.113281 10.851562 -6.113281 C 11.109375 -6.292969 11.871094 -6.597656 11.871094 -6.929688 C 11.871094 -7.132812 11.617188 -7.210938 11.464844 -7.210938 C 10.675781 -7.210938 9.605469 -5.988281 9.324219 -5.734375 C 8 -4.558594 6.648438 -3.492188 5.273438 -2.371094 C 4.992188 -2.140625 4.535156 -1.835938 4.152344 -1.835938 C 3.234375 -1.835938 3.160156 -3.972656 3.160156 -5.121094 C 3.160156 -5.527344 3.183594 -6.242188 3.667969 -6.242188 C 4.027344 -6.242188 4.382812 -6.140625 4.738281 -6.140625 C 6.164062 -6.140625 7.617188 -7.464844 7.898438 -8 C 8.027344 -8.253906 8.203125 -8.40625 8.382812 -8.585938 C 8.585938 -8.816406 8.6875 -9.222656 8.941406 -9.351562 C 9.199219 -9.527344 9.300781 -9.785156 9.300781 -10.089844 C 9.300781 -10.242188 9.273438 -10.394531 9.273438 -10.574219 C 9.273438 -10.648438 9.300781 -10.75 9.300781 -10.828125 C 9.300781 -12.203125 7.132812 -13.171875 5.808594 -13.171875 C 5.402344 -13.171875 5.222656 -12.789062 4.890625 -12.664062 C 4.332031 -12.433594 4 -11.921875 3.617188 -11.542969 C 3.441406 -10.980469 2.574219 -10.75 2.34375 -10.039062 C 2.214844 -9.628906 1.960938 -9.300781 1.707031 -8.992188 Z M 4.128906 -7.71875 C 3.71875 -7.769531 3.59375 -7.769531 3.59375 -7.949219 C 3.59375 -8.636719 4.941406 -11.335938 6.625 -11.335938 C 7.132812 -11.335938 7.234375 -10.625 7.234375 -10.191406 C 7.234375 -8.558594 5.042969 -7.871094 4.128906 -7.71875 Z M 4.128906 -7.71875 "/></g></g></g><path stroke-linecap="butt" transform="matrix(0.748768, 0, 0, 0.75, 231.642529, 228.676787)" fill="none" stroke-linejoin="miter" d="M -0.00254323 0.998659 L 57.09643 0.998659 " stroke="#000000" stroke-width="2" stroke-opacity="1" stroke-miterlimit="4"/><path stroke-linecap="butt" transform="matrix(0.748768, 0, 0, 0.75, 97.13474, 257.41926)" fill="none" stroke-linejoin="miter" d="M -0.00257386 0.998279 L 57.096399 0.998279 " stroke="#000000" stroke-width="2" stroke-opacity="1" stroke-miterlimit="4"/></svg>